# xmcd
#
# Track frame offsets:
#  150
#  14775
#  31200
#  42900
#  57825
#  79275
#  92175
#  108675
#  122100
#  142425
#  161100
#
# Disc length: 2367 seconds
#
# Revision: 0
# Processed by: cddbd v1.4PL0 Copyright (c) Steve Scherf et al.
# Submitted via: AltoMP3_Maker 3.0
#
DISCID=a3093d0b
DTITLE=Honky Tonk Juke Box Band - Special
DYEAR=1900
DGENRE=
TTITLE0=Pukin' In The Parking Lot
TTITLE1=Itty Bitty Titties
TTITLE2=Ballad Of A TJ's
TTITLE3=Coyote Ugly
TTITLE4=Fat Tighted Woman
TTITLE5=Hey Honey I'm Home
TTITLE6=Honky Tonk Asshole
TTITLE7=I Gave Her The Ring
TTITLE8=Let Me In Your Pants
TTITLE9=Sittin' On My Face
TTITLE10=Itty Bitty Titties (Live)
EXTD=
EXTT0=
EXTT1=
EXTT2=
EXTT3=
EXTT4=
EXTT5=
EXTT6=
EXTT7=
EXTT8=
EXTT9=
EXTT10=
PLAYORDER=
